<?xml version="1.0" encoding="UTF-8" standalone="no"?>
<!DOCTYPE svg PUBLIC "-//W3C//DTD SVG 1.1//EN"
 "http://www.w3.org/Graphics/SVG/1.1/DTD/svg11.dtd">
<!-- Generated by graphviz version 2.38.0 (20140413.2041)
 -->
<!-- Title: %3 Pages: 1 -->
<svg width="741pt" height="448pt"
 viewBox="0.00 0.00 741.00 448.00" xmlns="http://www.w3.org/2000/svg" xmlns:xlink="http://www.w3.org/1999/xlink">
<g id="graph0" class="graph" transform="scale(1 1) rotate(0) translate(4 444)">
<title>%3</title>
<polygon fill="white" stroke="none" points="-4,4 -4,-444 737,-444 737,4 -4,4"/>
<!-- map_weightLoss3months -->
<g id="node1" class="node"><title>map_weightLoss3months</title>
<ellipse fill="#b2dfee" stroke="#b2dfee" cx="240.876" cy="-384.305" rx="175.225" ry="26.7407"/>
<text text-anchor="middle" x="240.876" y="-388.105" font-family="Times,serif" font-size="14.00">Weight Loss over Past 3 Months</text>
<text text-anchor="middle" x="240.876" y="-373.105" font-family="Times,serif" font-size="14.00">[ncit:C138908]</text>
</g>
<!-- map_patient -->
<g id="node2" class="node"><title>map_patient</title>
<ellipse fill="#b2dfee" stroke="#b2dfee" cx="322.119" cy="-321.011" rx="82.0488" ry="26.7407"/>
<text text-anchor="middle" x="322.119" y="-324.811" font-family="Times,serif" font-size="14.00">Patient</text>
<text text-anchor="middle" x="322.119" y="-309.811" font-family="Times,serif" font-size="14.00">[ncit:C16960]</text>
</g>
<!-- map_patient&#45;&gt;map_weightLoss3months -->
<g id="edge1" class="edge"><title>map_patient&#45;&gt;map_weightLoss3months</title>
<path fill="none" stroke="black" d="M290.01,-346.027C287.681,-347.841 285.313,-349.685 282.939,-351.535"/>
<polygon fill="black" stroke="black" points="280.627,-348.9 274.889,-357.807 284.929,-354.422 280.627,-348.9"/>
<text text-anchor="middle" x="234.974" y="-337.581" font-family="Times,serif" font-size="14.00">has_finding</text>
<text text-anchor="middle" x="234.974" y="-322.581" font-family="Times,serif" font-size="14.00">[roo:P100022]</text>
</g>
<!-- map_radiotherapy -->
<g id="node3" class="node"><title>map_radiotherapy</title>
<ellipse fill="#b2dfee" stroke="#b2dfee" cx="596.836" cy="-334.957" rx="104.804" ry="26.7407"/>
<text text-anchor="middle" x="596.836" y="-338.757" font-family="Times,serif" font-size="14.00">Radiation Therapy</text>
<text text-anchor="middle" x="596.836" y="-323.757" font-family="Times,serif" font-size="14.00">[ncit:C15313]</text>
</g>
<!-- map_patient&#45;&gt;map_radiotherapy -->
<g id="edge2" class="edge"><title>map_patient&#45;&gt;map_radiotherapy</title>
<path fill="none" stroke="black" d="M403.428,-325.139C428.611,-326.417 456.828,-327.85 483.758,-329.217"/>
<polygon fill="black" stroke="black" points="483.843,-332.725 494.008,-329.737 484.198,-325.734 483.843,-332.725"/>
<text text-anchor="middle" x="443.593" y="-315.978" font-family="Times,serif" font-size="14.00">has_procedure</text>
<text text-anchor="middle" x="443.593" y="-300.978" font-family="Times,serif" font-size="14.00">[roo:P100024]</text>
</g>
<!-- map_neoplasm -->
<g id="node4" class="node"><title>map_neoplasm</title>
<ellipse fill="#b2dfee" stroke="#b2dfee" cx="262.296" cy="-258.271" rx="75.8212" ry="26.7407"/>
<text text-anchor="middle" x="262.296" y="-262.071" font-family="Times,serif" font-size="14.00">Neoplasm</text>
<text text-anchor="middle" x="262.296" y="-247.071" font-family="Times,serif" font-size="14.00">[ncit:C3262]</text>
</g>
<!-- map_patient&#45;&gt;map_neoplasm -->
<g id="edge3" class="edge"><title>map_patient&#45;&gt;map_neoplasm</title>
<path fill="none" stroke="black" d="M297.441,-295.13C296.246,-293.877 295.04,-292.612 293.83,-291.343"/>
<polygon fill="black" stroke="black" points="296.351,-288.915 286.917,-284.093 291.284,-293.745 296.351,-288.915"/>
<text text-anchor="middle" x="347.135" y="-282.037" font-family="Times,serif" font-size="14.00">has_disease</text>
<text text-anchor="middle" x="347.135" y="-267.037" font-family="Times,serif" font-size="14.00">[roo:P100020]</text>
</g>
<!-- map_reirradiation -->
<g id="node5" class="node"><title>map_reirradiation</title>
<ellipse fill="#b2dfee" stroke="#b2dfee" cx="629.399" cy="-269.113" rx="103.476" ry="27.6545"/>
<text text-anchor="middle" x="629.399" y="-257.413" font-family="Times,serif" font-size="14.00">[roo:reirradiation]</text>
</g>
<!-- map_radiotherapy&#45;&gt;map_reirradiation -->
<g id="edge4" class="edge"><title>map_radiotherapy&#45;&gt;map_reirradiation</title>
<path fill="none" stroke="black" d="M610.081,-308.175C610.497,-307.334 610.915,-306.488 611.336,-305.638"/>
<polygon fill="black" stroke="black" points="614.553,-307.027 615.849,-296.512 608.278,-303.924 614.553,-307.027"/>
<text text-anchor="middle" x="557.708" y="-295.707" font-family="Times,serif" font-size="14.00">has_procedure</text>
<text text-anchor="middle" x="557.708" y="-280.707" font-family="Times,serif" font-size="14.00">[roo:P100024]</text>
</g>
<!-- map_recurrence -->
<g id="node7" class="node"><title>map_recurrence</title>
<ellipse fill="#b2dfee" stroke="#b2dfee" cx="198.917" cy="-190.893" rx="75.8212" ry="26.7407"/>
<text text-anchor="middle" x="198.917" y="-194.693" font-family="Times,serif" font-size="14.00">Recurrence</text>
<text text-anchor="middle" x="198.917" y="-179.693" font-family="Times,serif" font-size="14.00">[ncit:C3352]</text>
</g>
<!-- map_neoplasm&#45;&gt;map_recurrence -->
<g id="edge6" class="edge"><title>map_neoplasm&#45;&gt;map_recurrence</title>
<path fill="none" stroke="black" d="M237.973,-232.414C235.377,-229.654 232.711,-226.819 230.05,-223.991"/>
<polygon fill="black" stroke="black" points="232.471,-221.456 223.07,-216.57 227.372,-226.252 232.471,-221.456"/>
<text text-anchor="middle" x="305.512" y="-217.002" font-family="Times,serif" font-size="14.00">has_disease_finding</text>
<text text-anchor="middle" x="305.512" y="-202.002" font-family="Times,serif" font-size="14.00">[roo:P100258]</text>
</g>
<!-- map_reirradiation_xsd_integer -->
<g id="node6" class="node"><title>map_reirradiation_xsd_integer</title>
<ellipse fill="#b2dfee" stroke="#b2dfee" cx="503.322" cy="-413.412" rx="76.2353" ry="26.7407"/>
<text text-anchor="middle" x="503.322" y="-417.212" font-family="Times,serif" font-size="14.00">LITERAL</text>
<text text-anchor="middle" x="503.322" y="-402.212" font-family="Times,serif" font-size="14.00">[xsd:integer]</text>
</g>
<!-- map_reirradiation&#45;&gt;map_reirradiation_xsd_integer -->
<g id="edge5" class="edge"><title>map_reirradiation&#45;&gt;map_reirradiation_xsd_integer</title>
<path fill="none" stroke="black" d="M605.685,-296.254C584.999,-319.93 554.906,-354.372 532.7,-379.788"/>
<polygon fill="black" stroke="black" points="530.024,-377.531 526.08,-387.364 535.296,-382.137 530.024,-377.531"/>
<text text-anchor="middle" x="517.692" y="-356.821" font-family="Times,serif" font-size="14.00">has_count</text>
<text text-anchor="middle" x="517.692" y="-341.821" font-family="Times,serif" font-size="14.00">[roo:P100223]</text>
</g>
<!-- map_recurrence_xsd_string -->
<g id="node8" class="node"><title>map_recurrence_xsd_string</title>
<ellipse fill="#b2dfee" stroke="#b2dfee" cx="69.6292" cy="-27.0083" rx="70.0071" ry="26.7407"/>
<text text-anchor="middle" x="69.6292" y="-30.8083" font-family="Times,serif" font-size="14.00">LITERAL</text>
<text text-anchor="middle" x="69.6292" y="-15.8083" font-family="Times,serif" font-size="14.00">[xsd:string]</text>
</g>
<!-- map_recurrence&#45;&gt;map_recurrence_xsd_string -->
<g id="edge7" class="edge"><title>map_recurrence&#45;&gt;map_recurrence_xsd_string</title>
<path fill="none" stroke="black" d="M178.431,-164.925C156.208,-136.755 120.648,-91.6799 96.2697,-60.7776"/>
<polygon fill="black" stroke="black" points="98.961,-58.5381 90.0195,-52.8548 93.4653,-62.8737 98.961,-58.5381"/>
<text text-anchor="middle" x="85.8505" y="-131.651" font-family="Times,serif" font-size="14.00">has_location</text>
<text text-anchor="middle" x="85.8505" y="-116.651" font-family="Times,serif" font-size="14.00">[roo:P100202]</text>
</g>
</g>
</svg>
