<?xml version="1.0" encoding="UTF-8" standalone="no"?>
<!DOCTYPE svg PUBLIC "-//W3C//DTD SVG 1.1//EN"
 "http://www.w3.org/Graphics/SVG/1.1/DTD/svg11.dtd">
<!-- Generated by graphviz version 2.38.0 (20140413.2041)
 -->
<!-- Title: %3 Pages: 1 -->
<svg width="1715pt" height="423pt"
 viewBox="0.00 0.00 1715.02 422.96" xmlns="http://www.w3.org/2000/svg" xmlns:xlink="http://www.w3.org/1999/xlink">
<g id="graph0" class="graph" transform="scale(1 1) rotate(0) translate(4 418.96)">
<title>%3</title>
<polygon fill="white" stroke="none" points="-4,4 -4,-418.96 1711.02,-418.96 1711.02,4 -4,4"/>
<!-- map_treatingClinic -->
<g id="node1" class="node"><title>map_treatingClinic</title>
<ellipse fill="#b2dfee" stroke="#b2dfee" cx="301.024" cy="-267.35" rx="120.417" ry="26.7407"/>
<text text-anchor="middle" x="301.024" y="-271.15" font-family="Times,serif" font-size="14.00">Clinics and Hospitals</text>
<text text-anchor="middle" x="301.024" y="-256.15" font-family="Times,serif" font-size="14.00">[ncit:C19326]</text>
</g>
<!-- map_registration -->
<g id="node2" class="node"><title>map_registration</title>
<ellipse fill="#b2dfee" stroke="#b2dfee" cx="82.0244" cy="-146.61" rx="82.0488" ry="26.7407"/>
<text text-anchor="middle" x="82.0244" y="-150.41" font-family="Times,serif" font-size="14.00">Registration</text>
<text text-anchor="middle" x="82.0244" y="-135.41" font-family="Times,serif" font-size="14.00">[ncit:C25646]</text>
</g>
<!-- map_treatingClinic&#45;&gt;map_registration -->
<g id="edge1" class="edge"><title>map_treatingClinic&#45;&gt;map_registration</title>
<path fill="none" stroke="black" d="M196.061,-254.215C154.2,-247.275 112.509,-236.998 98.0244,-222.48 87.9999,-212.433 83.5544,-197.741 81.7778,-184.027"/>
<polygon fill="black" stroke="black" points="85.2438,-183.484 80.8913,-173.824 78.2701,-184.09 85.2438,-183.484"/>
<text text-anchor="middle" x="161.024" y="-195.28" font-family="Times,serif" font-size="14.00">[roo:has_created]</text>
</g>
<!-- map_treatingClinic_xsd_string -->
<g id="node3" class="node"><title>map_treatingClinic_xsd_string</title>
<ellipse fill="#b2dfee" stroke="#b2dfee" cx="294.024" cy="-146.61" rx="70.0071" ry="26.7407"/>
<text text-anchor="middle" x="294.024" y="-150.41" font-family="Times,serif" font-size="14.00">LITERAL</text>
<text text-anchor="middle" x="294.024" y="-135.41" font-family="Times,serif" font-size="14.00">[xsd:string]</text>
</g>
<!-- map_treatingClinic&#45;&gt;map_treatingClinic_xsd_string -->
<g id="edge2" class="edge"><title>map_treatingClinic&#45;&gt;map_treatingClinic_xsd_string</title>
<path fill="none" stroke="black" d="M250.186,-242.773C242.897,-237.167 236.398,-230.443 232.024,-222.48 225.392,-210.404 225.693,-203.717 232.024,-191.48 235.2,-185.343 239.674,-179.88 244.781,-175.072"/>
<polygon fill="black" stroke="black" points="247.217,-177.597 252.64,-168.495 242.725,-172.229 247.217,-177.597"/>
<text text-anchor="middle" x="322.524" y="-195.28" font-family="Times,serif" font-size="14.00">[roo:has_contact_person]</text>
</g>
<!-- map_treatingClinic&#45;&gt;map_treatingClinic_xsd_string -->
<g id="edge3" class="edge"><title>map_treatingClinic&#45;&gt;map_treatingClinic_xsd_string</title>
<path fill="none" stroke="black" d="M383.371,-247.674C395.061,-241.524 405.61,-233.348 413.024,-222.48 420.79,-211.099 420.904,-202.783 413.024,-191.48 402.453,-176.316 386.017,-166.38 368.7,-159.873"/>
<polygon fill="black" stroke="black" points="369.615,-156.488 359.021,-156.6 367.372,-163.119 369.615,-156.488"/>
<text text-anchor="middle" x="470.524" y="-210.78" font-family="Times,serif" font-size="14.00">has_value</text>
<text text-anchor="middle" x="470.524" y="-195.78" font-family="Times,serif" font-size="14.00">[roo:P100042]</text>
</g>
<!-- map_registration_xsd_date -->
<g id="node18" class="node"><title>map_registration_xsd_date</title>
<ellipse fill="#b2dfee" stroke="#b2dfee" cx="82.0244" cy="-26.8701" rx="62.4516" ry="26.7407"/>
<text text-anchor="middle" x="82.0244" y="-30.6701" font-family="Times,serif" font-size="14.00">LITERAL</text>
<text text-anchor="middle" x="82.0244" y="-15.6701" font-family="Times,serif" font-size="14.00">[xsd:date]</text>
</g>
<!-- map_registration&#45;&gt;map_registration_xsd_date -->
<g id="edge17" class="edge"><title>map_registration&#45;&gt;map_registration_xsd_date</title>
<path fill="none" stroke="black" d="M82.0244,-119.48C82.0244,-103.169 82.0244,-81.9427 82.0244,-64.0294"/>
<polygon fill="black" stroke="black" points="85.5245,-63.9273 82.0244,-53.9274 78.5245,-63.9274 85.5245,-63.9273"/>
<text text-anchor="middle" x="133.524" y="-90.5401" font-family="Times,serif" font-size="14.00">has_value</text>
<text text-anchor="middle" x="133.524" y="-75.5401" font-family="Times,serif" font-size="14.00">[roo:P100042]</text>
</g>
<!-- map_biologicalSex -->
<g id="node4" class="node"><title>map_biologicalSex</title>
<ellipse fill="#b2dfee" stroke="#b2dfee" cx="601.024" cy="-267.35" rx="82.0488" ry="26.7407"/>
<text text-anchor="middle" x="601.024" y="-271.15" font-family="Times,serif" font-size="14.00">Sex</text>
<text text-anchor="middle" x="601.024" y="-256.15" font-family="Times,serif" font-size="14.00">[ncit:C28421]</text>
</g>
<!-- map_maleSex -->
<g id="node5" class="node"><title>map_maleSex</title>
<ellipse fill="#b2dfee" stroke="#b2dfee" cx="505.024" cy="-146.61" rx="82.0488" ry="26.7407"/>
<text text-anchor="middle" x="505.024" y="-150.41" font-family="Times,serif" font-size="14.00">Male</text>
<text text-anchor="middle" x="505.024" y="-135.41" font-family="Times,serif" font-size="14.00">[ncit:C20197]</text>
</g>
<!-- map_biologicalSex&#45;&gt;map_maleSex -->
<g id="edge4" class="edge"><title>map_biologicalSex&#45;&gt;map_maleSex</title>
<path fill="none" stroke="black" d="M575.3,-241.478C569.43,-235.433 563.356,-228.866 558.024,-222.48 547.223,-209.544 536.296,-194.51 527.192,-181.322"/>
<polygon fill="black" stroke="black" points="530.018,-179.254 521.492,-172.963 524.234,-183.197 530.018,-179.254"/>
<text text-anchor="middle" x="609.524" y="-210.78" font-family="Times,serif" font-size="14.00">has_value</text>
<text text-anchor="middle" x="609.524" y="-195.78" font-family="Times,serif" font-size="14.00">[roo:P100042]</text>
</g>
<!-- map_femaleSex -->
<g id="node6" class="node"><title>map_femaleSex</title>
<ellipse fill="#b2dfee" stroke="#b2dfee" cx="687.024" cy="-146.61" rx="82.0488" ry="26.7407"/>
<text text-anchor="middle" x="687.024" y="-150.41" font-family="Times,serif" font-size="14.00">Female</text>
<text text-anchor="middle" x="687.024" y="-135.41" font-family="Times,serif" font-size="14.00">[ncit:C16576]</text>
</g>
<!-- map_biologicalSex&#45;&gt;map_femaleSex -->
<g id="edge5" class="edge"><title>map_biologicalSex&#45;&gt;map_femaleSex</title>
<path fill="none" stroke="black" d="M642.532,-244.073C650.927,-237.998 659.011,-230.766 665.024,-222.48 673.188,-211.233 678.341,-196.979 681.586,-183.932"/>
<polygon fill="black" stroke="black" points="685.083,-184.326 683.801,-173.809 678.244,-182.83 685.083,-184.326"/>
<text text-anchor="middle" x="731.524" y="-210.78" font-family="Times,serif" font-size="14.00">has_value</text>
<text text-anchor="middle" x="731.524" y="-195.78" font-family="Times,serif" font-size="14.00">[roo:P100042]</text>
</g>
<!-- map_maleSex_xsd_string -->
<g id="node13" class="node"><title>map_maleSex_xsd_string</title>
<ellipse fill="#b2dfee" stroke="#b2dfee" cx="505.024" cy="-26.8701" rx="70.0071" ry="26.7407"/>
<text text-anchor="middle" x="505.024" y="-30.6701" font-family="Times,serif" font-size="14.00">LITERAL</text>
<text text-anchor="middle" x="505.024" y="-15.6701" font-family="Times,serif" font-size="14.00">[xsd:string]</text>
</g>
<!-- map_maleSex&#45;&gt;map_maleSex_xsd_string -->
<g id="edge9" class="edge"><title>map_maleSex&#45;&gt;map_maleSex_xsd_string</title>
<path fill="none" stroke="black" d="M505.024,-119.48C505.024,-103.169 505.024,-81.9427 505.024,-64.0294"/>
<polygon fill="black" stroke="black" points="508.524,-63.9273 505.024,-53.9274 501.524,-63.9274 508.524,-63.9273"/>
<text text-anchor="middle" x="556.524" y="-90.5401" font-family="Times,serif" font-size="14.00">has_value</text>
<text text-anchor="middle" x="556.524" y="-75.5401" font-family="Times,serif" font-size="14.00">[roo:P100042]</text>
</g>
<!-- map_femaleSex_xsd_string -->
<g id="node20" class="node"><title>map_femaleSex_xsd_string</title>
<ellipse fill="#b2dfee" stroke="#b2dfee" cx="687.024" cy="-26.8701" rx="70.0071" ry="26.7407"/>
<text text-anchor="middle" x="687.024" y="-30.6701" font-family="Times,serif" font-size="14.00">LITERAL</text>
<text text-anchor="middle" x="687.024" y="-15.6701" font-family="Times,serif" font-size="14.00">[xsd:string]</text>
</g>
<!-- map_femaleSex&#45;&gt;map_femaleSex_xsd_string -->
<g id="edge19" class="edge"><title>map_femaleSex&#45;&gt;map_femaleSex_xsd_string</title>
<path fill="none" stroke="black" d="M687.024,-119.48C687.024,-103.169 687.024,-81.9427 687.024,-64.0294"/>
<polygon fill="black" stroke="black" points="690.524,-63.9273 687.024,-53.9274 683.524,-63.9274 690.524,-63.9273"/>
<text text-anchor="middle" x="738.524" y="-90.5401" font-family="Times,serif" font-size="14.00">has_value</text>
<text text-anchor="middle" x="738.524" y="-75.5401" font-family="Times,serif" font-size="14.00">[roo:P100042]</text>
</g>
<!-- map_referringClinic -->
<g id="node7" class="node"><title>map_referringClinic</title>
<ellipse fill="#b2dfee" stroke="#b2dfee" cx="821.024" cy="-267.35" rx="120.417" ry="26.7407"/>
<text text-anchor="middle" x="821.024" y="-271.15" font-family="Times,serif" font-size="14.00">Clinics and Hospitals</text>
<text text-anchor="middle" x="821.024" y="-256.15" font-family="Times,serif" font-size="14.00">[ncit:C19326]</text>
</g>
<!-- map_referringClinic_xsd_string -->
<g id="node8" class="node"><title>map_referringClinic_xsd_string</title>
<ellipse fill="#b2dfee" stroke="#b2dfee" cx="857.024" cy="-146.61" rx="70.0071" ry="26.7407"/>
<text text-anchor="middle" x="857.024" y="-150.41" font-family="Times,serif" font-size="14.00">LITERAL</text>
<text text-anchor="middle" x="857.024" y="-135.41" font-family="Times,serif" font-size="14.00">[xsd:string]</text>
</g>
<!-- map_referringClinic&#45;&gt;map_referringClinic_xsd_string -->
<g id="edge6" class="edge"><title>map_referringClinic&#45;&gt;map_referringClinic_xsd_string</title>
<path fill="none" stroke="black" d="M828.925,-240.292C833.989,-223.588 840.631,-201.682 846.185,-183.361"/>
<polygon fill="black" stroke="black" points="849.59,-184.193 849.142,-173.607 842.892,-182.162 849.59,-184.193"/>
<text text-anchor="middle" x="895.524" y="-210.78" font-family="Times,serif" font-size="14.00">has_value</text>
<text text-anchor="middle" x="895.524" y="-195.78" font-family="Times,serif" font-size="14.00">[roo:P100042]</text>
</g>
<!-- map_ageAtDiagnosis -->
<g id="node9" class="node"><title>map_ageAtDiagnosis</title>
<ellipse fill="#b2dfee" stroke="#b2dfee" cx="1056.02" cy="-267.35" rx="96.7474" ry="26.7407"/>
<text text-anchor="middle" x="1056.02" y="-271.15" font-family="Times,serif" font-size="14.00">Age at Diagnosis</text>
<text text-anchor="middle" x="1056.02" y="-256.15" font-family="Times,serif" font-size="14.00">[roo:C100002]</text>
</g>
<!-- map_ageAtDiagnosis_xsd_integer -->
<g id="node10" class="node"><title>map_ageAtDiagnosis_xsd_integer</title>
<ellipse fill="#b2dfee" stroke="#b2dfee" cx="1056.02" cy="-146.61" rx="76.2353" ry="26.7407"/>
<text text-anchor="middle" x="1056.02" y="-150.41" font-family="Times,serif" font-size="14.00">LITERAL</text>
<text text-anchor="middle" x="1056.02" y="-135.41" font-family="Times,serif" font-size="14.00">[xsd:integer]</text>
</g>
<!-- map_ageAtDiagnosis&#45;&gt;map_ageAtDiagnosis_xsd_integer -->
<g id="edge7" class="edge"><title>map_ageAtDiagnosis&#45;&gt;map_ageAtDiagnosis_xsd_integer</title>
<path fill="none" stroke="black" d="M1056.02,-240.292C1056.02,-223.665 1056.02,-201.885 1056.02,-183.616"/>
<polygon fill="black" stroke="black" points="1059.52,-183.607 1056.02,-173.607 1052.52,-183.607 1059.52,-183.607"/>
<text text-anchor="middle" x="1107.52" y="-210.78" font-family="Times,serif" font-size="14.00">has_value</text>
<text text-anchor="middle" x="1107.52" y="-195.78" font-family="Times,serif" font-size="14.00">[roo:P100042]</text>
</g>
<!-- map_yearOfBirth -->
<g id="node11" class="node"><title>map_yearOfBirth</title>
<ellipse fill="#b2dfee" stroke="#b2dfee" cx="1604.02" cy="-388.09" rx="82.0488" ry="26.7407"/>
<text text-anchor="middle" x="1604.02" y="-391.89" font-family="Times,serif" font-size="14.00">Birth Year</text>
<text text-anchor="middle" x="1604.02" y="-376.89" font-family="Times,serif" font-size="14.00">[ncit:C83164]</text>
</g>
<!-- map_yearOfBirth_xsd_gYear -->
<g id="node12" class="node"><title>map_yearOfBirth_xsd_gYear</title>
<ellipse fill="#b2dfee" stroke="#b2dfee" cx="1604.02" cy="-267.35" rx="68.6788" ry="26.7407"/>
<text text-anchor="middle" x="1604.02" y="-271.15" font-family="Times,serif" font-size="14.00">LITERAL</text>
<text text-anchor="middle" x="1604.02" y="-256.15" font-family="Times,serif" font-size="14.00">[xsd:gYear]</text>
</g>
<!-- map_yearOfBirth&#45;&gt;map_yearOfBirth_xsd_gYear -->
<g id="edge8" class="edge"><title>map_yearOfBirth&#45;&gt;map_yearOfBirth_xsd_gYear</title>
<path fill="none" stroke="black" d="M1604.02,-361.032C1604.02,-344.405 1604.02,-322.625 1604.02,-304.356"/>
<polygon fill="black" stroke="black" points="1607.52,-304.347 1604.02,-294.348 1600.52,-304.348 1607.52,-304.347"/>
<text text-anchor="middle" x="1655.52" y="-331.52" font-family="Times,serif" font-size="14.00">has_value</text>
<text text-anchor="middle" x="1655.52" y="-316.52" font-family="Times,serif" font-size="14.00">[roo:P100042]</text>
</g>
<!-- map_birth -->
<g id="node14" class="node"><title>map_birth</title>
<ellipse fill="#b2dfee" stroke="#b2dfee" cx="1253.02" cy="-267.35" rx="82.0488" ry="26.7407"/>
<text text-anchor="middle" x="1253.02" y="-271.15" font-family="Times,serif" font-size="14.00">Birth</text>
<text text-anchor="middle" x="1253.02" y="-256.15" font-family="Times,serif" font-size="14.00">[ncit:C25155]</text>
</g>
<!-- map_birth_xsd_gYear -->
<g id="node15" class="node"><title>map_birth_xsd_gYear</title>
<ellipse fill="#b2dfee" stroke="#b2dfee" cx="1253.02" cy="-146.61" rx="68.6788" ry="26.7407"/>
<text text-anchor="middle" x="1253.02" y="-150.41" font-family="Times,serif" font-size="14.00">LITERAL</text>
<text text-anchor="middle" x="1253.02" y="-135.41" font-family="Times,serif" font-size="14.00">[xsd:gYear]</text>
</g>
<!-- map_birth&#45;&gt;map_birth_xsd_gYear -->
<g id="edge10" class="edge"><title>map_birth&#45;&gt;map_birth_xsd_gYear</title>
<path fill="none" stroke="black" d="M1253.02,-240.292C1253.02,-223.665 1253.02,-201.885 1253.02,-183.616"/>
<polygon fill="black" stroke="black" points="1256.52,-183.607 1253.02,-173.607 1249.52,-183.607 1256.52,-183.607"/>
<text text-anchor="middle" x="1304.52" y="-210.78" font-family="Times,serif" font-size="14.00">has_unit</text>
<text text-anchor="middle" x="1304.52" y="-195.78" font-family="Times,serif" font-size="14.00">[roo:P100027]</text>
</g>
<!-- map_patient -->
<g id="node16" class="node"><title>map_patient</title>
<ellipse fill="#b2dfee" stroke="#b2dfee" cx="913.024" cy="-388.09" rx="82.0488" ry="26.7407"/>
<text text-anchor="middle" x="913.024" y="-391.89" font-family="Times,serif" font-size="14.00">Patient</text>
<text text-anchor="middle" x="913.024" y="-376.89" font-family="Times,serif" font-size="14.00">[ncit:C16960]</text>
</g>
<!-- map_patient&#45;&gt;map_treatingClinic -->
<g id="edge11" class="edge"><title>map_patient&#45;&gt;map_treatingClinic</title>
<path fill="none" stroke="black" d="M832.947,-381.824C757.54,-375.87 641.738,-364.16 543.024,-343.22 484.262,-330.755 419.312,-310.278 371.507,-293.886"/>
<polygon fill="black" stroke="black" points="372.473,-290.517 361.878,-290.561 370.188,-297.134 372.473,-290.517"/>
<text text-anchor="middle" x="594.524" y="-331.52" font-family="Times,serif" font-size="14.00">is_treated_in</text>
<text text-anchor="middle" x="594.524" y="-316.52" font-family="Times,serif" font-size="14.00">[roo:P100039]</text>
</g>
<!-- map_patient&#45;&gt;map_biologicalSex -->
<g id="edge14" class="edge"><title>map_patient&#45;&gt;map_biologicalSex</title>
<path fill="none" stroke="black" d="M834.598,-379.988C792.362,-374.016 740.214,-363.1 697.024,-343.22 673.881,-332.568 651.248,-315.348 633.776,-300.107"/>
<polygon fill="black" stroke="black" points="635.918,-297.327 626.129,-293.274 631.254,-302.547 635.918,-297.327"/>
<text text-anchor="middle" x="763.524" y="-331.52" font-family="Times,serif" font-size="14.00">has_biological_sex</text>
<text text-anchor="middle" x="763.524" y="-316.52" font-family="Times,serif" font-size="14.00">[roo:P100018]</text>
</g>
<!-- map_patient&#45;&gt;map_referringClinic -->
<g id="edge13" class="edge"><title>map_patient&#45;&gt;map_referringClinic</title>
<path fill="none" stroke="black" d="M873.702,-364.43C865.429,-358.336 857.314,-351.191 851.024,-343.22 842.038,-331.833 835.412,-317.401 830.708,-304.254"/>
<polygon fill="black" stroke="black" points="833.95,-302.911 827.478,-294.522 827.306,-305.116 833.95,-302.911"/>
<text text-anchor="middle" x="912.524" y="-316.02" font-family="Times,serif" font-size="14.00">[roo:referred_by]</text>
</g>
<!-- map_patient&#45;&gt;map_ageAtDiagnosis -->
<g id="edge15" class="edge"><title>map_patient&#45;&gt;map_ageAtDiagnosis</title>
<path fill="none" stroke="black" d="M947.109,-363.641C956.024,-357.222 965.516,-350.125 974.024,-343.22 990.595,-329.773 1008.17,-313.955 1022.78,-300.331"/>
<polygon fill="black" stroke="black" points="1025.23,-302.828 1030.13,-293.431 1020.44,-297.725 1025.23,-302.828"/>
<text text-anchor="middle" x="1086.52" y="-331.52" font-family="Times,serif" font-size="14.00">has_age_at_diagnosis</text>
<text text-anchor="middle" x="1086.52" y="-316.52" font-family="Times,serif" font-size="14.00">[roo:P100016]</text>
</g>
<!-- map_patient&#45;&gt;map_birth -->
<g id="edge16" class="edge"><title>map_patient&#45;&gt;map_birth</title>
<path fill="none" stroke="black" d="M994.57,-384.397C1046.4,-380.001 1113.72,-369.199 1168.02,-343.22 1189.21,-333.082 1209.14,-316.104 1224.36,-300.876"/>
<polygon fill="black" stroke="black" points="1226.99,-303.193 1231.44,-293.579 1221.97,-298.318 1226.99,-303.193"/>
<text text-anchor="middle" x="1262.52" y="-331.52" font-family="Times,serif" font-size="14.00">has_birth</text>
<text text-anchor="middle" x="1262.52" y="-316.52" font-family="Times,serif" font-size="14.00">[roo:P100327]</text>
</g>
<!-- map_identifier -->
<g id="node17" class="node"><title>map_identifier</title>
<ellipse fill="#b2dfee" stroke="#b2dfee" cx="1435.02" cy="-267.35" rx="82.0488" ry="26.7407"/>
<text text-anchor="middle" x="1435.02" y="-271.15" font-family="Times,serif" font-size="14.00">Identifier</text>
<text text-anchor="middle" x="1435.02" y="-256.15" font-family="Times,serif" font-size="14.00">[ncit:C25364]</text>
</g>
<!-- map_patient&#45;&gt;map_identifier -->
<g id="edge12" class="edge"><title>map_patient&#45;&gt;map_identifier</title>
<path fill="none" stroke="black" d="M993.634,-382.734C1094.22,-376.542 1260.07,-363.628 1318.02,-343.22 1346.87,-333.064 1375.84,-314.6 1397.74,-298.551"/>
<polygon fill="black" stroke="black" points="1399.86,-301.334 1405.77,-292.54 1395.67,-295.729 1399.86,-301.334"/>
<text text-anchor="middle" x="1456.02" y="-331.52" font-family="Times,serif" font-size="14.00">has_person_identifier</text>
<text text-anchor="middle" x="1456.02" y="-316.52" font-family="Times,serif" font-size="14.00">[roo:P100061]</text>
</g>
<!-- map_identifier_xsd_string -->
<g id="node19" class="node"><title>map_identifier_xsd_string</title>
<ellipse fill="#b2dfee" stroke="#b2dfee" cx="1435.02" cy="-146.61" rx="70.0071" ry="26.7407"/>
<text text-anchor="middle" x="1435.02" y="-150.41" font-family="Times,serif" font-size="14.00">LITERAL</text>
<text text-anchor="middle" x="1435.02" y="-135.41" font-family="Times,serif" font-size="14.00">[xsd:string]</text>
</g>
<!-- map_identifier&#45;&gt;map_identifier_xsd_string -->
<g id="edge18" class="edge"><title>map_identifier&#45;&gt;map_identifier_xsd_string</title>
<path fill="none" stroke="black" d="M1435.02,-240.292C1435.02,-223.665 1435.02,-201.885 1435.02,-183.616"/>
<polygon fill="black" stroke="black" points="1438.52,-183.607 1435.02,-173.607 1431.52,-183.607 1438.52,-183.607"/>
<text text-anchor="middle" x="1486.52" y="-210.78" font-family="Times,serif" font-size="14.00">has_value</text>
<text text-anchor="middle" x="1486.52" y="-195.78" font-family="Times,serif" font-size="14.00">[roo:P100042]</text>
</g>
</g>
</svg>
